# xmcd
#
# Track frame offsets: 
#        150
#        13729
#        28113
#        42751
#        59154
#        74399
#        89196
#        104751
#        119939
#        133501
#        147100
#        160590
#        174684
#        188874
#        203121
#        217308
#        231388
#        245207
#        259347
#        273383
#        288079
#        301534
#        314911
#        328206
#
# Disc length: 4561 seconds
#
# Revision: 0
# Processed by: cddbd v1.5.2PL0 Copyright (c) Steve Scherf et al.
# Submitted via: ExactAudioCopy v0.95b3
#
DISCID=8e11cf18
DTITLE=Big Bill Broonzy  - Volume 7 1935 Complete Edition
DYEAR=1900
DGENRE=
TTITLE0=Midnight Special
TTITLE1=The Dozen
TTITLE2=Don't Tear My Clothes
TTITLE3=The Southern Blues
TTITLE4=Good Jelly
TTITLE5=Monkey Man Blues
TTITLE6=Ocean Blues
TTITLE7=Y.M.V. Blues
TTITLE8=C And A Blues
TTITLE9=Something Good
TTITLE10=Mama Don't Allow
TTITLE11=Jesse James Blues
TTITLE12=Can't You Trust Me No More?
TTITLE13=Where Was You Last Night?
TTITLE14=I Done Lost My Baby
TTITLE15=I'm Needig Someone
TTITLE16=Who Pumped The Wind In My Doughnut?
TTITLE17=Mama Don't Allow
TTITLE18=You May Need My Help Someday
TTITLE19=Rising Sun Shine On
TTITLE20=Tell Me What Kind Of Man Jesus Is
TTITLE21=I Ain't No Stranger Now
TTITLE22=Early In The Morning
TTITLE23=Harmonica Stomp
EXTD=
EXTT0=
EXTT1=
EXTT2=
EXTT3=
EXTT4=
EXTT5=
EXTT6=
EXTT7=
EXTT8=
EXTT9=
EXTT10=
EXTT11=
EXTT12=
EXTT13=
EXTT14=
EXTT15=
EXTT16=
EXTT17=
EXTT18=
EXTT19=
EXTT20=
EXTT21=
EXTT22=
EXTT23=
PLAYORDER=
